<svg width="702" height="802" viewBox="0 0 702 802" fill="none" xmlns="http://www.w3.org/2000/svg">
<path fill-rule="evenodd" clip-rule="evenodd" d="M360.83 411.928V514.265C360.83 516.591 364.324 518.917 366.653 517.754L456.33 466.586C457.494 465.423 458.659 464.26 458.659 463.097V359.597C458.659 357.271 455.165 354.945 452.836 356.108L365.488 406.114C363.159 407.276 360.83 409.602 360.83 411.928Z" fill="#1F6CE0"/>
<path fill-rule="evenodd" clip-rule="evenodd" d="M216.975 472.929L128.463 421.758C126.134 420.596 122.64 422.921 122.64 425.247V527.583C122.64 531.074 123.804 533.401 126.134 534.564L214.646 585.733C216.975 586.891 220.469 584.569 220.469 582.242V479.905C220.469 476.414 219.304 474.093 216.975 472.929Z" fill="#1F6CE0"/>
<path fill-rule="evenodd" clip-rule="evenodd" d="M216.975 336.562L128.463 285.391C126.134 284.229 122.64 286.554 122.64 288.88V391.216C122.64 394.706 123.804 397.033 126.134 398.197L214.646 449.365C216.975 450.524 220.469 448.202 220.469 445.875V343.538C220.469 340.047 219.304 337.725 216.975 336.562Z" fill="#1F6CE0"/>
<path fill-rule="evenodd" clip-rule="evenodd" d="M336.071 404.968L247.558 353.797C245.229 352.635 241.735 354.96 241.735 357.286V459.622C241.735 463.113 242.9 465.44 245.229 466.603L333.741 517.772C336.071 518.93 339.564 516.608 339.564 514.281V411.944C339.564 408.453 338.4 406.132 336.071 404.968Z" fill="#1F6CE0"/>
<path fill-rule="evenodd" clip-rule="evenodd" d="M359.355 686.269V788.606C359.355 790.932 362.849 793.258 365.178 792.095L454.855 740.927C456.019 739.765 457.184 738.601 457.184 737.438V633.938C457.184 631.612 453.69 629.287 451.361 630.45L364.013 680.455C361.684 681.618 359.355 683.943 359.355 686.269Z" fill="#D9DEE2"/>
<path fill-rule="evenodd" clip-rule="evenodd" d="M478.494 617.601V719.937C478.494 722.263 481.988 724.59 484.317 723.427L573.994 672.258C575.158 671.096 576.323 669.933 576.323 668.77V565.269C576.323 562.943 572.829 560.618 570.5 561.781L483.152 611.786C480.823 612.949 478.494 615.275 478.494 617.601Z" fill="#D9DEE2"/>
<path fill-rule="evenodd" clip-rule="evenodd" d="M597.633 551.501V653.837C597.633 656.163 601.127 658.49 603.456 657.327L693.133 606.158C694.297 604.996 695.462 603.832 695.462 602.669V499.169C695.462 496.843 691.968 494.518 689.639 495.681L602.291 545.686C599.962 546.849 597.633 549.175 597.633 551.501Z" fill="#D9DEE2"/>
<path fill-rule="evenodd" clip-rule="evenodd" d="M597.633 416.534V518.87C597.633 521.196 601.127 523.523 603.456 522.36L693.133 471.191C694.297 470.029 695.462 468.865 695.462 467.702V364.202C695.462 361.876 691.968 359.551 689.639 360.714L602.291 410.719C599.962 411.882 597.633 414.208 597.633 416.534Z" fill="#D9DEE2"/>
<path fill-rule="evenodd" clip-rule="evenodd" d="M597.633 278.497V380.833C597.633 383.159 601.127 385.486 603.456 384.323L693.133 333.154C694.297 331.992 695.462 330.828 695.462 329.665V226.165C695.462 223.839 691.968 221.514 689.639 222.677L602.291 272.682C599.962 273.845 597.633 276.171 597.633 278.497Z" fill="#D9DEE2"/>
<path fill-rule="evenodd" clip-rule="evenodd" d="M257.864 192.643L346.378 142.637C348.708 141.474 352.199 141.474 353.364 142.637L443.039 193.806C445.37 196.132 445.37 199.62 443.039 200.783L354.529 250.789C352.199 251.952 349.868 251.952 347.543 250.789L257.864 199.621C255.535 197.295 255.535 193.806 257.864 192.643Z" fill="#D9DEE2"/>
<path fill-rule="evenodd" clip-rule="evenodd" d="M373.151 123.337L461.664 73.3319C463.995 72.169 467.485 72.169 468.65 73.3319L558.326 124.501C560.656 126.826 560.656 130.315 558.326 131.478L469.816 181.483C467.485 182.646 465.155 182.646 462.829 181.483L373.151 130.315C370.821 127.989 370.821 124.5 373.151 123.337Z" fill="#D9DEE2"/>
<path fill-rule="evenodd" clip-rule="evenodd" d="M492.514 192.643L581.028 142.637C583.358 141.474 586.849 141.474 588.014 142.637L677.689 193.806C680.02 196.132 680.02 199.62 677.689 200.783L589.179 250.789C586.849 251.952 584.518 251.952 582.193 250.789L492.514 199.621C490.185 197.295 490.185 193.806 492.514 192.643Z" fill="#D9DEE2"/>
<path fill-rule="evenodd" clip-rule="evenodd" d="M142.928 123.369L231.441 73.3633C233.772 72.2003 237.262 72.2003 238.427 73.3633L328.103 124.532C330.433 126.858 330.433 130.346 328.103 131.509L239.593 181.515C237.262 182.678 234.932 182.678 232.606 181.515L142.928 130.347C140.598 128.021 140.598 124.532 142.928 123.369Z" fill="#D9DEE2"/>
<path fill-rule="evenodd" clip-rule="evenodd" d="M258.214 54.0633L346.728 4.05779C349.058 2.8948 352.548 2.8948 353.714 4.05779L443.389 55.2269C445.72 57.5523 445.72 61.0408 443.389 62.2038L354.879 112.209C352.548 113.372 350.218 113.372 347.893 112.209L258.214 61.0413C255.885 58.7153 255.885 55.2263 258.214 54.0633Z" fill="#D9DEE2"/>
<path fill-rule="evenodd" clip-rule="evenodd" d="M23.2144 192.643L111.728 142.637C114.058 141.474 117.549 141.474 118.714 142.637L208.389 193.806C210.72 196.132 210.72 199.62 208.389 200.783L119.879 250.789C117.549 251.952 115.218 251.952 112.893 250.789L23.2144 199.621C20.885 197.295 20.885 193.806 23.2144 192.643Z" fill="#D9DEE2"/>
<path fill-rule="evenodd" clip-rule="evenodd" d="M100.872 409.598L12.3601 358.427C10.0312 357.264 6.53711 359.59 6.53711 361.916L6.53711 464.251C6.53711 467.742 7.70181 470.069 10.0312 471.232L98.5431 522.401C100.872 523.559 104.366 521.238 104.366 518.91V416.573C104.366 413.083 103.202 410.761 100.872 409.598Z" fill="#D9DEE2"/>
<path fill-rule="evenodd" clip-rule="evenodd" d="M100.872 545.901L12.3601 494.73C10.0312 493.568 6.53711 495.893 6.53711 498.219L6.53711 600.555C6.53711 604.045 7.70181 606.373 10.0312 607.536L98.5431 658.705C100.872 659.863 104.366 657.541 104.366 655.214V552.877C104.366 549.386 103.202 547.065 100.872 545.901Z" fill="#D9DEE2"/>
<path fill-rule="evenodd" clip-rule="evenodd" d="M217.474 610.07L128.962 558.899C126.633 557.737 123.139 560.062 123.139 562.388V664.724C123.139 668.214 124.304 670.541 126.633 671.705L215.145 722.873C217.474 724.031 220.968 721.71 220.968 719.383L220.968 617.046C220.968 613.555 219.804 611.233 217.474 610.07Z" fill="#D9DEE2"/>
<path fill-rule="evenodd" clip-rule="evenodd" d="M335.533 679.333L247.02 628.163C244.692 627 241.197 629.326 241.197 631.652V733.987C241.197 737.478 242.362 739.805 244.692 740.968L333.203 792.137C335.533 793.295 339.026 790.973 339.026 788.646V686.309C339.026 682.819 337.862 680.497 335.533 679.333Z" fill="#D9DEE2"/>
<path fill-rule="evenodd" clip-rule="evenodd" d="M100.872 271.206L12.3601 220.035C10.0312 218.873 6.53711 221.198 6.53711 223.524L6.53711 325.86C6.53711 329.35 7.70181 331.677 10.0312 332.841L98.5431 384.009C100.872 385.168 104.366 382.846 104.366 380.519V278.182C104.366 274.691 103.202 272.369 100.872 271.206Z" fill="#D9DEE2"/>
<path fill-rule="evenodd" clip-rule="evenodd" d="M139.586 260.387L228.099 210.381C230.43 209.218 233.92 209.218 235.086 210.381L324.761 261.55C327.091 263.876 327.091 267.364 324.761 268.527L236.251 318.533C233.92 319.696 231.59 319.696 229.265 318.533L139.586 267.365C137.257 265.039 137.257 261.55 139.586 260.387Z" fill="#1F6CE0"/>
<path fill-rule="evenodd" clip-rule="evenodd" d="M257.788 326.693L346.302 276.688C348.632 275.525 352.122 275.525 353.288 276.688L442.963 327.857C445.294 330.182 445.294 333.671 442.963 334.834L354.453 384.839C352.122 386.002 349.792 386.002 347.467 384.839L257.788 333.671C255.459 331.345 255.459 327.856 257.788 326.693Z" fill="#1F6CE0"/>
<path fill-rule="evenodd" clip-rule="evenodd" d="M374.81 260.387L463.323 210.381C465.653 209.218 469.144 209.218 470.309 210.381L559.985 261.55C562.315 263.876 562.315 267.364 559.985 268.527L471.474 318.533C469.144 319.696 466.813 319.696 464.488 318.533L374.81 267.365C372.48 265.039 372.48 261.55 374.81 260.387Z" fill="#4AE68D"/>
<path fill-rule="evenodd" clip-rule="evenodd" d="M476.565 343.521V445.858C476.565 448.184 480.059 450.51 482.388 449.347L572.065 398.179C573.23 397.016 574.394 395.853 574.394 394.69V291.189C574.394 288.863 570.9 286.538 568.571 287.701L481.224 337.707C478.894 338.869 476.565 341.195 476.565 343.521Z" fill="#4AE68D"/>
<path fill-rule="evenodd" clip-rule="evenodd" d="M476.565 479.888V582.225C476.565 584.551 480.059 586.877 482.388 585.714L572.065 534.546C573.23 533.383 574.394 532.22 574.394 531.057V427.557C574.394 425.231 570.9 422.905 568.571 424.068L481.224 474.074C478.894 475.236 476.565 477.562 476.565 479.888Z" fill="#4AE68D"/>
<path fill-rule="evenodd" clip-rule="evenodd" d="M359.623 545.198V647.534C359.623 649.86 363.117 652.187 365.446 651.024L455.123 599.855C456.287 598.693 457.452 597.529 457.452 596.366V492.866C457.452 490.54 453.958 488.215 451.629 489.378L364.281 539.383C361.952 540.546 359.623 542.872 359.623 545.198Z" fill="#4AE68D"/>
<path fill-rule="evenodd" clip-rule="evenodd" d="M336.071 540.548L247.558 489.377C245.229 488.215 241.735 490.541 241.735 492.867V595.202C241.735 598.693 242.9 601.02 245.229 602.183L333.741 653.352C336.071 654.51 339.564 652.188 339.564 649.861V547.524C339.564 544.034 338.4 541.712 336.071 540.548Z" fill="#4AE68D"/>
</svg>
