<svg width="1926" height="802" viewBox="0 0 1926 802" fill="none" xmlns="http://www.w3.org/2000/svg">
<path d="M800.184 446.62V463.655H710.895V334.494H731.485V446.62H800.184Z" fill="#16161F"/>
<path d="M867.739 463.655L865.867 449.241L860.813 459.911C854.074 464.591 845.463 466.275 836.104 466.275C818.508 466.275 804.094 456.167 804.094 437.635C804.094 415.547 821.69 403.567 859.315 403.567H865.68V401.133C865.68 397.389 865.68 394.02 865.305 390.276C864.744 382.227 859.69 376.611 847.897 376.611C835.917 376.611 829.739 383.35 828.616 395.705H808.025C809.336 373.991 825.621 361.636 848.271 361.636C873.916 361.636 884.024 372.493 885.709 389.34C886.083 393.459 886.271 398.7 886.271 403.38V438.384C886.271 445.872 886.645 452.61 888.142 463.655H867.739ZM843.591 451.3C856.507 451.3 865.68 442.502 865.68 426.404V417.232C841.532 415.36 825.808 420.788 825.808 435.951C825.808 446.433 832.734 451.3 843.591 451.3Z" fill="#16161F"/>
<path d="M960.945 361.636C989.397 361.636 1005.68 383.163 1005.68 412.177C1005.68 448.679 983.22 466.275 957.575 466.275C949.339 466.275 939.043 464.029 933.989 460.098L927.438 450.177V463.655H906.847V326.07H927.438V379.794L934.925 369.124C940.541 364.444 950.836 361.636 960.945 361.636ZM955.142 451.3C971.614 451.3 983.969 438.758 983.969 414.049C983.969 392.523 974.048 376.611 956.078 376.611C940.728 376.611 927.438 386.345 927.438 412.926V417.98C927.438 442.315 942.038 451.3 955.142 451.3Z" fill="#16161F"/>
<path d="M1186.32 334.494L1151.12 463.655H1123.98L1098.15 353.587L1071.01 463.655H1043.68L1010.36 334.494H1033.01L1057.72 446.62L1084.49 336.366H1112.75L1138.77 447.182L1164.98 334.494H1186.32Z" fill="#16161F"/>
<path d="M1275.11 411.429C1275.11 413.301 1275.11 416.108 1274.73 419.665H1203.41C1205.1 443.438 1215.96 451.3 1229.43 451.3C1241.41 451.3 1250.77 444 1252.83 431.458H1273.61C1269.3 455.044 1250.4 466.275 1228.68 466.275C1202.1 466.275 1182.07 449.428 1182.07 414.237C1182.07 382.789 1202.1 361.636 1230.74 361.636C1259.57 361.636 1275.11 383.35 1275.11 411.429ZM1229.99 376.611C1215.96 376.611 1205.85 386.158 1203.6 405.251H1253.95C1252.46 386.907 1244.41 376.611 1229.99 376.611Z" fill="#16161F"/>
<path d="M1374.6 411.429C1374.6 413.301 1374.6 416.108 1374.23 419.665H1302.91C1304.59 443.438 1315.45 451.3 1328.93 451.3C1340.91 451.3 1350.27 444 1352.33 431.458H1373.1C1368.8 455.044 1349.89 466.275 1328.18 466.275C1301.6 466.275 1281.57 449.428 1281.57 414.237C1281.57 382.789 1301.6 361.636 1330.24 361.636C1359.07 361.636 1374.6 383.35 1374.6 411.429ZM1329.49 376.611C1315.45 376.611 1305.34 386.158 1303.1 405.251H1353.45C1351.95 386.907 1343.9 376.611 1329.49 376.611Z" fill="#16161F"/>
<path d="M1417.94 422.847L1409.14 432.581V463.655H1388.55V326.07H1409.14V412.177L1452.57 364.257H1477.84L1432.54 410.867L1478.4 463.655H1451.64L1417.94 422.847Z" fill="#16161F"/>
<path d="M1514.87 447.182H1574.21V463.655H1484.17V453.172L1529.28 407.685C1545.57 391.587 1552.68 382.227 1552.68 369.873C1552.68 357.331 1545.57 347.41 1531.53 347.41C1516.74 347.41 1509.44 356.769 1507.76 373.804L1507.57 375.676H1486.98L1487.16 373.804C1489.79 346.474 1506.45 331.686 1533.77 331.686C1561.1 331.686 1574.96 347.597 1574.96 368.001C1574.96 385.035 1565.97 397.015 1543.32 419.103L1514.87 447.182Z" fill="#16161F"/>
<path d="M1635.9 331.873C1672.03 331.873 1684.2 359.952 1684.2 399.074C1684.2 437.822 1672.03 466.275 1635.9 466.275C1599.96 466.275 1587.61 437.822 1587.61 399.074C1587.61 359.952 1599.96 331.873 1635.9 331.873ZM1635.9 450.551C1654.43 450.551 1661.92 432.207 1661.92 399.074C1661.92 365.567 1654.43 347.597 1635.9 347.597C1617.56 347.597 1609.88 365.567 1609.88 399.074C1609.88 432.207 1617.56 450.551 1635.9 450.551Z" fill="#16161F"/>
<path d="M1728.48 447.182H1787.82V463.655H1697.79V453.172L1742.9 407.685C1759.18 391.587 1766.3 382.227 1766.3 369.873C1766.3 357.331 1759.18 347.41 1745.14 347.41C1730.36 347.41 1723.06 356.769 1721.37 373.804L1721.18 375.676H1700.59L1700.78 373.804C1703.4 346.474 1720.06 331.686 1747.39 331.686C1774.72 331.686 1788.57 347.597 1788.57 368.001C1788.57 385.035 1779.59 397.015 1756.94 419.103L1728.48 447.182Z" fill="#16161F"/>
<path d="M1870.3 395.143C1886.96 399.261 1896.69 410.118 1896.69 427.153C1896.69 451.3 1875.35 466.275 1848.4 466.275C1821.81 466.275 1804.22 453.921 1801.41 426.591L1801.22 424.719H1821.81L1822 426.591C1823.87 442.502 1834.73 450.551 1849.33 450.551C1864.12 450.551 1874.41 441.941 1874.41 428.089C1874.41 413.862 1865.24 406 1846.15 405.813H1842.4V390.651L1846.15 390.463C1860.75 390.276 1871.42 381.853 1871.42 367.439C1871.42 355.646 1863.37 347.597 1850.83 347.597C1838.1 347.597 1828.74 355.833 1827.24 370.621L1827.06 372.493H1806.65L1806.84 370.621C1809.09 347.597 1825.18 331.873 1853.07 331.873C1878.91 331.873 1893.69 345.912 1893.69 365.006C1893.69 379.981 1884.9 391.025 1870.3 395.143Z" fill="#16161F"/>
<path fill-rule="evenodd" clip-rule="evenodd" d="M326.41 410.1V499.183C326.41 501.208 329.451 503.233 331.479 502.221L409.542 457.679C410.556 456.667 411.57 455.654 411.57 454.642V364.545C411.57 362.52 408.528 360.496 406.501 361.509L330.465 405.038C328.437 406.05 326.41 408.075 326.41 410.1Z" fill="#1F6CE0"/>
<path fill-rule="evenodd" clip-rule="evenodd" d="M201.185 463.201L124.135 418.657C122.108 417.645 119.066 419.67 119.066 421.694V510.777C119.066 513.816 120.08 515.841 122.108 516.854L199.157 561.396C201.185 562.404 204.226 560.383 204.226 558.358V469.274C204.226 466.235 203.213 464.214 201.185 463.201Z" fill="#1F6CE0"/>
<path fill-rule="evenodd" clip-rule="evenodd" d="M201.185 344.494L124.135 299.95C122.108 298.938 119.066 300.962 119.066 302.987V392.069C119.066 395.108 120.08 397.134 122.108 398.147L199.157 442.688C201.185 443.697 204.226 441.676 204.226 439.65V350.566C204.226 347.528 203.213 345.506 201.185 344.494Z" fill="#1F6CE0"/>
<path fill-rule="evenodd" clip-rule="evenodd" d="M304.857 404.041L227.807 359.498C225.78 358.486 222.738 360.51 222.738 362.535V451.617C222.738 454.656 223.752 456.682 225.78 457.694L302.829 502.236C304.857 503.245 307.898 501.224 307.898 499.198V410.114C307.898 407.075 306.884 405.054 304.857 404.041Z" fill="#1F6CE0"/>
<path fill-rule="evenodd" clip-rule="evenodd" d="M325.126 648.912V737.996C325.126 740.02 328.167 742.046 330.195 741.033L408.258 696.491C409.272 695.479 410.286 694.467 410.286 693.454V603.358C410.286 601.333 407.244 599.309 405.217 600.321L329.181 643.851C327.153 644.863 325.126 646.888 325.126 648.912Z" fill="#D9DEE2"/>
<path fill-rule="evenodd" clip-rule="evenodd" d="M428.836 589.137V678.22C428.836 680.245 431.877 682.27 433.905 681.258L511.968 636.716C512.982 635.704 513.996 634.691 513.996 633.679V543.582C513.996 541.558 510.954 539.533 508.927 540.546L432.891 584.075C430.863 585.087 428.836 587.112 428.836 589.137Z" fill="#D9DEE2"/>
<path fill-rule="evenodd" clip-rule="evenodd" d="M532.546 531.597V620.68C532.546 622.705 535.587 624.73 537.615 623.718L615.678 579.176C616.692 578.164 617.705 577.151 617.705 576.139V486.042C617.705 484.018 614.664 481.993 612.637 483.006L536.601 526.535C534.573 527.547 532.546 529.572 532.546 531.597Z" fill="#D9DEE2"/>
<path fill-rule="evenodd" clip-rule="evenodd" d="M532.546 414.109V503.192C532.546 505.217 535.587 507.242 537.615 506.23L615.678 461.688C616.692 460.676 617.705 459.663 617.705 458.651V368.554C617.705 366.53 614.664 364.505 612.637 365.518L536.601 409.047C534.573 410.059 532.546 412.084 532.546 414.109Z" fill="#D9DEE2"/>
<path fill-rule="evenodd" clip-rule="evenodd" d="M532.546 293.948V383.032C532.546 385.057 535.587 387.082 537.615 386.069L615.678 341.528C616.692 340.516 617.705 339.503 617.705 338.49V248.394C617.705 246.369 614.664 244.345 612.637 245.358L536.601 288.887C534.573 289.899 532.546 291.924 532.546 293.948Z" fill="#D9DEE2"/>
<path fill-rule="evenodd" clip-rule="evenodd" d="M236.779 219.213L313.83 175.684C315.858 174.671 318.897 174.671 319.911 175.684L397.973 220.226C400.002 222.25 400.002 225.287 397.973 226.299L320.925 269.829C318.897 270.841 316.868 270.841 314.844 269.829L236.779 225.287C234.751 223.263 234.751 220.226 236.779 219.213Z" fill="#D9DEE2"/>
<path fill-rule="evenodd" clip-rule="evenodd" d="M337.135 158.883L414.186 115.354C416.214 114.341 419.253 114.341 420.267 115.354L498.329 159.896C500.358 161.92 500.358 164.957 498.329 165.969L421.281 209.499C419.253 210.511 417.224 210.511 415.2 209.499L337.135 164.957C335.107 162.933 335.107 159.895 337.135 158.883Z" fill="#D9DEE2"/>
<path fill-rule="evenodd" clip-rule="evenodd" d="M441.041 219.213L518.091 175.684C520.12 174.671 523.158 174.671 524.172 175.684L602.234 220.226C604.263 222.25 604.263 225.287 602.234 226.299L525.187 269.829C523.158 270.841 521.129 270.841 519.105 269.829L441.041 225.287C439.013 223.263 439.013 220.226 441.041 219.213Z" fill="#D9DEE2"/>
<path fill-rule="evenodd" clip-rule="evenodd" d="M136.727 158.91L213.778 115.381C215.806 114.368 218.845 114.368 219.859 115.381L297.921 159.923C299.95 161.948 299.95 164.984 297.921 165.997L220.873 209.526C218.845 210.539 216.816 210.539 214.792 209.526L136.727 164.985C134.7 162.96 134.7 159.923 136.727 158.91Z" fill="#D9DEE2"/>
<path fill-rule="evenodd" clip-rule="evenodd" d="M237.083 98.5803L314.134 55.0508C316.163 54.0384 319.201 54.0384 320.215 55.0508L398.277 99.5932C400.306 101.617 400.306 104.654 398.277 105.667L321.23 149.196C319.201 150.208 317.172 150.208 315.148 149.196L237.083 104.655C235.056 102.63 235.056 99.5927 237.083 98.5803Z" fill="#D9DEE2"/>
<path fill-rule="evenodd" clip-rule="evenodd" d="M32.5175 219.213L109.568 175.684C111.597 174.671 114.635 174.671 115.649 175.684L193.711 220.226C195.74 222.25 195.74 225.287 193.711 226.299L116.664 269.829C114.635 270.841 112.606 270.841 110.582 269.829L32.5175 225.287C30.4897 223.263 30.4897 220.226 32.5175 219.213Z" fill="#D9DEE2"/>
<path fill-rule="evenodd" clip-rule="evenodd" d="M100.118 408.071L23.0689 363.527C21.0416 362.515 18 364.539 18 366.564L18 455.647C18 458.685 19.0139 460.711 21.0416 461.724L98.0907 506.266C100.118 507.274 103.16 505.253 103.16 503.227V414.143C103.16 411.105 102.146 409.084 100.118 408.071Z" fill="#D9DEE2"/>
<path fill-rule="evenodd" clip-rule="evenodd" d="M100.118 526.722L23.0689 482.179C21.0416 481.167 18 483.191 18 485.216L18 574.298C18 577.337 19.0139 579.362 21.0416 580.375L98.0907 624.917C100.118 625.925 103.16 623.904 103.16 621.879V532.795C103.16 529.756 102.146 527.735 100.118 526.722Z" fill="#D9DEE2"/>
<path fill-rule="evenodd" clip-rule="evenodd" d="M201.62 582.581L124.57 538.037C122.543 537.025 119.501 539.049 119.501 541.074V630.157C119.501 633.195 120.515 635.221 122.543 636.234L199.592 680.776C201.62 681.784 204.661 679.763 204.661 677.737L204.661 588.653C204.661 585.615 203.648 583.594 201.62 582.581Z" fill="#D9DEE2"/>
<path fill-rule="evenodd" clip-rule="evenodd" d="M304.389 642.874L227.339 598.331C225.312 597.319 222.271 599.343 222.271 601.368V690.45C222.271 693.489 223.284 695.515 225.312 696.527L302.361 741.069C304.389 742.078 307.43 740.057 307.43 738.031V648.947C307.43 645.908 306.417 643.887 304.389 642.874Z" fill="#D9DEE2"/>
<path fill-rule="evenodd" clip-rule="evenodd" d="M100.118 287.602L23.0689 243.058C21.0416 242.046 18 244.07 18 246.095L18 335.178C18 338.216 19.0139 340.242 21.0416 341.255L98.0907 385.797C100.118 386.805 103.16 384.784 103.16 382.758V293.674C103.16 290.636 102.146 288.615 100.118 287.602Z" fill="#D9DEE2"/>
<path fill-rule="evenodd" clip-rule="evenodd" d="M133.818 278.183L210.868 234.654C212.897 233.641 215.935 233.641 216.95 234.654L295.012 279.196C297.04 281.22 297.04 284.257 295.012 285.27L217.964 328.799C215.935 329.812 213.907 329.812 211.882 328.799L133.818 284.258C131.79 282.233 131.79 279.196 133.818 278.183Z" fill="#1F6CE0"/>
<path fill-rule="evenodd" clip-rule="evenodd" d="M236.712 335.904L313.763 292.374C315.791 291.362 318.83 291.362 319.844 292.374L397.906 336.916C399.935 338.941 399.935 341.977 397.906 342.99L320.858 386.519C318.83 387.532 316.801 387.532 314.777 386.519L236.712 341.978C234.684 339.953 234.684 336.916 236.712 335.904Z" fill="#1F6CE0"/>
<path fill-rule="evenodd" clip-rule="evenodd" d="M338.579 278.183L415.63 234.654C417.659 233.641 420.697 233.641 421.711 234.654L499.773 279.196C501.802 281.22 501.802 284.257 499.773 285.27L422.726 328.799C420.697 329.812 418.668 329.812 416.644 328.799L338.579 284.258C336.552 282.233 336.552 279.196 338.579 278.183Z" fill="#4AE68D"/>
<path fill-rule="evenodd" clip-rule="evenodd" d="M427.157 350.552V439.636C427.157 441.66 430.198 443.686 432.226 442.673L510.289 398.131C511.303 397.119 512.317 396.107 512.317 395.094V304.998C512.317 302.973 509.275 300.949 507.248 301.961L431.212 345.491C429.184 346.503 427.157 348.527 427.157 350.552Z" fill="#4AE68D"/>
<path fill-rule="evenodd" clip-rule="evenodd" d="M427.157 469.259V558.342C427.157 560.367 430.198 562.392 432.226 561.38L510.289 516.838C511.303 515.826 512.317 514.813 512.317 513.801V423.704C512.317 421.68 509.275 419.655 507.248 420.668L431.212 464.197C429.184 465.209 427.157 467.234 427.157 469.259Z" fill="#4AE68D"/>
<path fill-rule="evenodd" clip-rule="evenodd" d="M325.359 526.11V615.194C325.359 617.219 328.4 619.244 330.428 618.231L408.491 573.689C409.505 572.677 410.519 571.665 410.519 570.652V480.556C410.519 478.531 407.477 476.507 405.45 477.519L329.414 521.049C327.387 522.061 325.359 524.086 325.359 526.11Z" fill="#4AE68D"/>
<path fill-rule="evenodd" clip-rule="evenodd" d="M304.857 522.063L227.807 477.519C225.78 476.507 222.738 478.532 222.738 480.556V569.639C222.738 572.677 223.752 574.703 225.78 575.716L302.829 620.258C304.857 621.266 307.898 619.245 307.898 617.219V528.135C307.898 525.097 306.884 523.076 304.857 522.063Z" fill="#4AE68D"/>
</svg>
